<?xml version="1.0" standalone="no"?>
<!DOCTYPE svg PUBLIC "-//W3C//DTD SVG 20010904//EN"
 "http://www.w3.org/TR/2001/REC-SVG-20010904/DTD/svg10.dtd">
<svg version="1.0" xmlns="http://www.w3.org/2000/svg"
 width="579.000000pt" height="424.000000pt" viewBox="0 0 579.000000 424.000000"
 preserveAspectRatio="xMidYMid meet">
<metadata>
Created by potrace 1.16, written by Peter Selinger 2001-2019
</metadata>
<g transform="translate(0.000000,424.000000) scale(0.100000,-0.100000)"
fill="#000000" stroke="none">
<path d="M3923 1570 c-68 -14 -113 -56 -113 -105 0 -23 37 -55 64 -55 20 0 24
6 30 38 12 81 78 119 122 71 14 -16 19 -36 19 -83 -1 -86 -30 -140 -142 -256
-82 -86 -93 -102 -93 -134 l0 -36 180 0 180 0 0 75 c0 57 -3 75 -14 75 -7 0
-19 -13 -25 -29 -7 -15 -24 -33 -37 -40 -31 -14 -214 -15 -214 -1 0 5 53 62
118 127 65 65 126 134 135 155 24 50 22 119 -3 151 -32 41 -129 63 -207 47z"/>
<path d="M1100 1556 c0 -8 10 -16 23 -20 30 -7 31 -8 113 -288 l69 -238 46 0
45 0 53 178 c29 97 57 181 62 186 5 5 12 -1 17 -15 5 -13 35 -97 67 -187 l58
-163 40 3 40 3 64 240 c35 131 70 249 78 262 9 13 24 23 35 23 11 0 20 7 20
15 0 12 -17 15 -95 15 -74 0 -95 -3 -95 -14 0 -7 14 -16 30 -19 26 -6 30 -11
30 -39 0 -28 -61 -311 -77 -358 -6 -19 -3 -28 -89 223 -65 187 -70 197 -94
197 -25 0 -28 -7 -90 -215 -36 -118 -67 -209 -71 -202 -19 36 -99 351 -94 368
4 12 19 22 36 26 16 3 29 12 29 19 0 11 -26 14 -125 14 -100 0 -125 -3 -125
-14z"/>
<path d="M1940 1555 c0 -8 9 -15 20 -15 11 0 26 -10 34 -22 11 -18 90 -272
148 -476 9 -32 11 -33 55 -30 l45 3 53 173 c29 95 57 178 62 183 6 6 33 -58
74 -176 l64 -185 43 0 c23 0 42 2 42 5 0 13 113 435 126 473 11 29 23 44 40
48 13 3 24 12 24 20 0 11 -21 14 -95 14 -76 0 -95 -3 -95 -14 0 -8 12 -16 26
-18 50 -6 51 -23 10 -200 -21 -90 -40 -173 -43 -185 -7 -32 -18 -21 -34 34 -7
27 -39 120 -70 208 -52 146 -59 160 -82 163 -24 3 -27 -2 -61 -110 -19 -62
-47 -156 -62 -208 -15 -52 -30 -98 -34 -103 -6 -7 -89 282 -98 341 -5 36 11
62 39 62 11 0 19 7 19 15 0 13 -21 15 -125 15 -104 0 -125 -2 -125 -15z"/>
<path d="M2810 1556 c0 -10 8 -16 23 -16 45 0 47 -11 47 -246 0 -122 -3 -229
-6 -238 -4 -10 -18 -16 -35 -16 -19 0 -29 -5 -29 -15 0 -13 21 -15 130 -15
109 0 130 2 130 15 0 10 -10 15 -30 15 -41 0 -52 30 -48 134 l3 81 32 3 c30 3
33 0 85 -99 29 -56 64 -110 78 -121 14 -10 52 -21 88 -24 53 -6 62 -5 62 10 0
9 -6 16 -13 16 -22 0 -62 50 -116 145 l-51 90 22 15 c87 57 113 159 55 220
-40 43 -82 53 -259 58 -150 4 -168 3 -168 -12z m308 -49 c28 -29 38 -102 22
-151 -14 -44 -56 -68 -108 -64 l-37 3 -3 104 c-1 58 0 111 2 118 4 8 23 13 54
13 38 0 53 -5 70 -23z"/>
<path d="M3610 1553 c0 -10 7 -56 15 -103 8 -47 15 -86 15 -87 0 -2 9 -3 20
-3 11 0 20 1 20 3 0 1 7 40 15 87 22 125 23 120 -35 120 -41 0 -50 -3 -50 -17z"/>
<path d="M4385 1538 c-22 -17 -59 -39 -83 -50 -31 -14 -42 -24 -38 -35 3 -8 6
-17 6 -19 0 -2 11 -4 25 -4 14 0 41 15 64 35 21 19 41 35 45 35 10 0 7 -407
-4 -434 -8 -23 -15 -26 -55 -26 -33 0 -45 -4 -45 -15 0 -13 24 -15 155 -15
131 0 155 2 155 15 0 11 -11 15 -38 15 -21 0 -43 5 -50 12 -9 9 -12 82 -12
265 l0 253 -42 -1 c-32 0 -54 -8 -83 -31z"/>
</g>
</svg>
